<svg xmlns="http://www.w3.org/2000/svg" xmlns:xlink="http://www.w3.org/1999/xlink" viewBox="0 0 240 240" width="240" height="240" preserveAspectRatio="xMidYMid meet" style="width: 100%; height: 100%; transform: translate3d(0px, 0px, 0px); content-visibility: visible;"><defs><clipPath id="__lottie_element_1633"><rect width="240" height="240" x="0" y="0"/></clipPath><clipPath id="__lottie_element_1635"><path d="M0,0 L240,0 L240,240 L0,240z"/></clipPath><g id="__lottie_element_1642"><g style="display: block;" transform="matrix(1,0,0,1,113.77803039550781,132.5)" opacity="1"><g opacity="1" transform="matrix(1,0,0,1,0,0)"><path fill="rgb(255,0,0)" fill-opacity="1" d=" M139.20843505859375,-25.717967987060547 C139.20843505859375,-43.64396667480469 124.63443756103516,-58.21796798706055 106.70843505859375,-58.21796798706055 C106.70843505859375,-58.21796798706055 -68.29156494140625,-58.21796798706055 -68.29156494140625,-58.21796798706055 C-80.71756744384766,-58.21796798706055 -86.48958587646484,-48.460533142089844 -90.79156494140625,-35.71796798706055 C-90.79156494140625,-35.71796798706055 -123.52294158935547,50 -123.52294158935547,50 C-123.52294158935547,67.9260025024414 -108.94894409179688,82.5 -91.02294158935547,82.5 C-91.02294158935547,82.5 73.97705841064453,82.5 73.97705841064453,82.5 C91.9030532836914,82.5 106.47705841064453,67.9260025024414 106.47705841064453,50 C106.47705841064453,50 139.20843505859375,-25.717967987060547 139.20843505859375,-25.717967987060547z"/></g></g></g><filter id="__lottie_element_1648" filterUnits="objectBoundingBox" x="0%" y="0%" width="100%" height="100%"><feComponentTransfer in="SourceGraphic"><feFuncA type="table" tableValues="1.0 0.0"/></feComponentTransfer></filter><mask id="__lottie_element_1642_2" mask-type="alpha" maskUnits="userSpaceOnUse"><g filter="url(#__lottie_element_1648)"><rect width="240" height="240" x="0" y="0" fill="#ffffff" opacity="0"/><use xmlns:ns1="http://www.w3.org/1999/xlink" ns1:href="#__lottie_element_1642"/></g></mask></defs><g clip-path="url(#__lottie_element_1633)"><g clip-path="url(#__lottie_element_1635)" transform="matrix(1,0,0,1,0,0)" opacity="1" style="display: block;"><g mask="url(#__lottie_element_1642_2)" style="display: block;"><g transform="matrix(1,0,0,1,104.3060302734375,120)" opacity="1"><g opacity="1" transform="matrix(1,0,0,1,0,0)"><path class="primary" fill="rgb(18,19,49)" fill-opacity="1" d=" M-13.798999786376953,-76.39700317382812 C-15.15999984741211,-78.63400268554688 -17.589000701904297,-80 -20.207000732421875,-80 C-20.207000732421875,-80 -92.5,-80 -92.5,-80 C-96.64199829101562,-80 -100,-76.64199829101562 -100,-72.5 C-100,-72.5 -100,62.5 -100,62.5 C-100,72.14199829101562 -92.14199829101562,80 -82.5,80 C-82.5,80 82.5,80 82.5,80 C92.14199829101562,80 100,72.14199829101562 100,62.5 C100,62.5 100,-37.5 100,-37.5 C100,-47.141998291015625 92.14199829101562,-55 82.5,-55 C82.5,-55 -0.7829999923706055,-55 -0.7829999923706055,-55 C-0.7829999923706055,-55 -13.798999786376953,-76.39700317382812 -13.798999786376953,-76.39700317382812z"/></g></g></g><g transform="matrix(1,0,0,1,104.3060302734375,120)" opacity="1" style="display: block;"><path class="primary" fill="rgb(18,19,49)" fill-opacity="1" d=" M92.5,62.5 C92.5,62.5 125.17811584472656,-9.537778854370117 125.17811584472656,-9.537778854370117 C125.17811584472656,-15.037778854370117 120.67811584472656,-19.537778854370117 115.17811584472656,-19.537778854370117 C115.17811584472656,-19.537778854370117 4.549556255340576,-19.537778854370117 -48.7741584777832,-19.537778854370117 C-52.44077682495117,-19.537778854370117 -54.62531280517578,-19.083480834960938 -57.68815231323242,-17.06796646118164 C-60.67478942871094,-15.103254318237305 -62.53887176513672,-12.817171096801758 -63.89785385131836,-9.511061668395996 C-73.4322280883789,13.68446159362793 -92.5,62.5 -92.5,62.5 C-92.5,68 -88,72.5 -82.5,72.5 C-82.5,72.5 82.5,72.5 82.5,72.5 C88,72.5 92.5,68 92.5,62.5z"/><g opacity="1" transform="matrix(1,0,0,1,0,0)"><path stroke-linecap="round" stroke-linejoin="round" fill-opacity="0" class="primary" stroke="rgb(18,19,49)" stroke-opacity="1" stroke-width="15" d=" M92.5,62.5 C92.5,62.5 125.17811584472656,-9.537778854370117 125.17811584472656,-9.537778854370117 C125.17811584472656,-15.037778854370117 120.67811584472656,-19.537778854370117 115.17811584472656,-19.537778854370117 C115.17811584472656,-19.537778854370117 4.549556255340576,-19.537778854370117 -48.7741584777832,-19.537778854370117 C-52.44077682495117,-19.537778854370117 -54.62531280517578,-19.083480834960938 -57.68815231323242,-17.06796646118164 C-60.67478942871094,-15.103254318237305 -62.53887176513672,-12.817171096801758 -63.89785385131836,-9.511061668395996 C-73.4322280883789,13.68446159362793 -92.5,62.5 -92.5,62.5 C-92.5,68 -88,72.5 -82.5,72.5 C-82.5,72.5 82.5,72.5 82.5,72.5 C88,72.5 92.5,68 92.5,62.5z"/></g></g></g></g></svg>