<svg xmlns="http://www.w3.org/2000/svg" xmlns:xlink="http://www.w3.org/1999/xlink" viewBox="0 0 240 240" width="240" height="240" preserveAspectRatio="xMidYMid meet" style="width: 100%; height: 100%; transform: translate3d(0px, 0px, 0px); content-visibility: visible;"><defs><clipPath id="__lottie_element_2"><rect width="240" height="240" x="0" y="0"/></clipPath><clipPath id="__lottie_element_4"><path d="M0,0 L240,0 L240,240 L0,240z"/></clipPath></defs><g clip-path="url(#__lottie_element_2)"><g clip-path="url(#__lottie_element_4)" transform="matrix(1,0,0,1,0,0)" opacity="1" style="display: block;"><g transform="matrix(1,0,0,1,120,117.02300262451172)" opacity="1" style="display: none;"><g opacity="1" transform="matrix(1,0,0,1,0,0)"><path stroke-linecap="round" stroke-linejoin="round" fill-opacity="0" class="primary" stroke="rgb(18,19,49)" stroke-opacity="1" stroke-width="15" d=" M-72.5,85.4800033569336 C-78.02300262451172,85.4800033569336 -82.5,81.00299835205078 -82.5,75.4800033569336 C-82.5,75.4800033569336 -82.5,-33.737998962402344 -82.5,-33.737998962402344 C-82.5,-37.314998626708984 -80.58999633789062,-40.61899948120117 -77.48999786376953,-42.40399932861328 C-77.48999786376953,-42.40399932861328 -4.989999771118164,-84.14700317382812 -4.989999771118164,-84.14700317382812 C-1.9010000228881836,-85.92500305175781 1.9010000228881836,-85.92500305175781 4.989999771118164,-84.14700317382812 C4.989999771118164,-84.14700317382812 77.48999786376953,-42.40399932861328 77.48999786376953,-42.40399932861328 C80.58999633789062,-40.61899948120117 82.5,-37.314998626708984 82.5,-33.737998962402344 C82.5,-33.737998962402344 82.5,75.4800033569336 82.5,75.4800033569336 C82.5,81.00299835205078 78.02300262451172,85.4800033569336 72.5,85.4800033569336 C72.5,85.4800033569336 -72.5,85.4800033569336 -72.5,85.4800033569336z"/></g></g><g transform="matrix(1,0,0,1,120,122.33650207519531)" opacity="1" style="display: none;"><g opacity="1" transform="matrix(1,0,0,1,0,0)"><path stroke-linecap="round" stroke-linejoin="round" fill-opacity="0" class="primary" stroke="rgb(18,19,49)" stroke-opacity="1" stroke-width="15" d=" M22.5,20.479999542236328 C22.5,20.479999542236328 -22.5,20.479999542236328 -22.5,20.479999542236328"/></g></g><g transform="matrix(1,0,0,1,120,117.02300262451172)" opacity="1" style="display: block;"><g opacity="1" transform="matrix(1,0,0,1,0,0)"><path class="primary" fill="rgb(18,19,49)" fill-opacity="1" d=" M72.5,92.9800033569336 C82.16500091552734,92.9800033569336 90,85.1449966430664 90,75.4800033569336 C90,75.4800033569336 90,-33.737998962402344 90,-33.737998962402344 C90,-39.99800109863281 86.65599822998047,-45.78099822998047 81.23100280761719,-48.90399932861328 C81.23100280761719,-48.90399932861328 8.730999946594238,-90.64700317382812 8.730999946594238,-90.64700317382812 C3.3259999752044678,-93.75900268554688 -3.3259999752044678,-93.75900268554688 -8.730999946594238,-90.64700317382812 C-8.730999946594238,-90.64700317382812 -81.23100280761719,-48.90399932861328 -81.23100280761719,-48.90399932861328 C-86.65599822998047,-45.78099822998047 -90,-39.99800109863281 -90,-33.737998962402344 C-90,-33.737998962402344 -90,75.4800033569336 -90,75.4800033569336 C-90,85.1449966430664 -82.16500091552734,92.9800033569336 -72.5,92.9800033569336 C-72.5,92.9800033569336 -32.5,92.9800033569336 -32.5,92.9800033569336 C-22.834999084472656,92.9800033569336 -15,85.1449966430664 -15,75.4800033569336 C-15,75.4800033569336 -15,27.979999542236328 -15,27.979999542236328 C-15,27.979999542236328 15,27.979999542236328 15,27.979999542236328 C15,27.979999542236328 15,75.4800033569336 15,75.4800033569336 C15,85.1449966430664 22.834999084472656,92.9800033569336 32.5,92.9800033569336 C32.5,92.9800033569336 72.5,92.9800033569336 72.5,92.9800033569336z M73.74700164794922,-35.90399932861328 C74.52200317382812,-35.45800018310547 75,-34.63199996948242 75,-33.737998962402344 C75,-33.737998962402344 75,75.4800033569336 75,75.4800033569336 C75,76.86100006103516 73.88099670410156,77.9800033569336 72.5,77.9800033569336 C72.5,77.9800033569336 32.5,77.9800033569336 32.5,77.9800033569336 C31.118999481201172,77.9800033569336 30,76.86100006103516 30,75.4800033569336 C30,75.4800033569336 30,20.479999542236328 30,20.479999542236328 C30,16.33799934387207 26.642000198364258,12.979999542236328 22.5,12.979999542236328 C22.5,12.979999542236328 -22.5,12.979999542236328 -22.5,12.979999542236328 C-26.642000198364258,12.979999542236328 -30,16.33799934387207 -30,20.479999542236328 C-30,20.479999542236328 -30,75.4800033569336 -30,75.4800033569336 C-30,76.86100006103516 -31.118999481201172,77.9800033569336 -32.5,77.9800033569336 C-32.5,77.9800033569336 -72.5,77.9800033569336 -72.5,77.9800033569336 C-73.88099670410156,77.9800033569336 -75,76.86100006103516 -75,75.4800033569336 C-75,75.4800033569336 -75,-33.737998962402344 -75,-33.737998962402344 C-75,-34.63199996948242 -74.52200317382812,-35.45800018310547 -73.74700164794922,-35.90399932861328 C-73.74700164794922,-35.90399932861328 -1.246999979019165,-77.64800262451172 -1.246999979019165,-77.64800262451172 C-0.4749999940395355,-78.09200286865234 0.4749999940395355,-78.09200286865234 1.246999979019165,-77.64800262451172 C1.246999979019165,-77.64800262451172 73.74700164794922,-35.90399932861328 73.74700164794922,-35.90399932861328z"/></g></g><g transform="matrix(1,0,0,1,120,117.02300262451172)" opacity="1" style="display: none;"><g opacity="1" transform="matrix(1,0,0,1,0,0)"><path class="primary" fill="rgb(18,19,49)" fill-opacity="1" d=" M72.5,92.9800033569336 C82.16500091552734,92.9800033569336 90,85.1449966430664 90,75.4800033569336 C90,75.4800033569336 90,-33.737998962402344 90,-33.737998962402344 C90,-39.99800109863281 86.65599822998047,-45.78099822998047 81.23100280761719,-48.90399932861328 C81.23100280761719,-48.90399932861328 8.730999946594238,-90.64700317382812 8.730999946594238,-90.64700317382812 C3.3259999752044678,-93.75900268554688 -3.3259999752044678,-93.75900268554688 -8.730999946594238,-90.64700317382812 C-8.730999946594238,-90.64700317382812 -81.23100280761719,-48.90399932861328 -81.23100280761719,-48.90399932861328 C-86.65599822998047,-45.78099822998047 -90,-39.99800109863281 -90,-33.737998962402344 C-90,-33.737998962402344 -90,75.4800033569336 -90,75.4800033569336 C-90,85.1449966430664 -82.16500091552734,92.9800033569336 -72.5,92.9800033569336 C-72.5,92.9800033569336 -32.5,92.9800033569336 -32.5,92.9800033569336 C-22.834999084472656,92.9800033569336 -15,85.1449966430664 -15,75.4800033569336 C-15,75.4800033569336 -15,27.979999542236328 -15,27.979999542236328 C-15,27.979999542236328 15,27.979999542236328 15,27.979999542236328 C15,27.979999542236328 15,75.4800033569336 15,75.4800033569336 C15,85.1449966430664 22.834999084472656,92.9800033569336 32.5,92.9800033569336 C32.5,92.9800033569336 72.5,92.9800033569336 72.5,92.9800033569336z M73.74700164794922,-35.90399932861328 C74.52200317382812,-35.45800018310547 75,-34.63199996948242 75,-33.737998962402344 C75,-33.737998962402344 75,75.4800033569336 75,75.4800033569336 C75,76.86100006103516 73.88099670410156,77.9800033569336 72.5,77.9800033569336 C72.5,77.9800033569336 32.5,77.9800033569336 32.5,77.9800033569336 C31.118999481201172,77.9800033569336 30,76.86100006103516 30,75.4800033569336 C30,75.4800033569336 30,20.479999542236328 30,20.479999542236328 C30,16.33799934387207 26.642000198364258,12.979999542236328 22.5,12.979999542236328 C22.5,12.979999542236328 -22.5,12.979999542236328 -22.5,12.979999542236328 C-26.642000198364258,12.979999542236328 -30,16.33799934387207 -30,20.479999542236328 C-30,20.479999542236328 -30,75.4800033569336 -30,75.4800033569336 C-30,76.86100006103516 -31.118999481201172,77.9800033569336 -32.5,77.9800033569336 C-32.5,77.9800033569336 -72.5,77.9800033569336 -72.5,77.9800033569336 C-73.88099670410156,77.9800033569336 -75,76.86100006103516 -75,75.4800033569336 C-75,75.4800033569336 -75,-33.737998962402344 -75,-33.737998962402344 C-75,-34.63199996948242 -74.52200317382812,-35.45800018310547 -73.74700164794922,-35.90399932861328 C-73.74700164794922,-35.90399932861328 -1.246999979019165,-77.64800262451172 -1.246999979019165,-77.64800262451172 C-0.4749999940395355,-78.09200286865234 0.4749999940395355,-78.09200286865234 1.246999979019165,-77.64800262451172 C1.246999979019165,-77.64800262451172 73.74700164794922,-35.90399932861328 73.74700164794922,-35.90399932861328z"/></g></g></g></g></svg>