<svg xmlns="http://www.w3.org/2000/svg" xmlns:xlink="http://www.w3.org/1999/xlink" viewBox="0 0 500 500" width="500" height="500" preserveAspectRatio="xMidYMid meet" style="width: 100%; height: 100%; transform: translate3d(0px, 0px, 0px); content-visibility: visible;"><defs><clipPath id="__lottie_element_16"><rect width="500" height="500" x="0" y="0"/></clipPath><clipPath id="__lottie_element_18"><path d="M0,0 L500,0 L500,500 L0,500z"/></clipPath></defs><g clip-path="url(#__lottie_element_16)"><g clip-path="url(#__lottie_element_18)" transform="matrix(1,0,0,1,0,0)" opacity="1" style="display: block;"><g class="primary design" transform="matrix(1,0,0,1,183.01600646972656,287.9580078125)" opacity="1" style="display: block;"><g opacity="1" transform="matrix(1,0,0,1,0,0)"><path class="primary" fill="rgb(18,19,49)" fill-opacity="1" d=" M-36.59700012207031,120.16600036621094 C-58.862998962402344,120.16600036621094 -79.7959976196289,111.49600219726562 -95.54000091552734,95.7509994506836 C-128.04100036621094,63.25 -128.04100036621094,10.366000175476074 -95.54000091552734,-22.135000228881836 C-95.54000091552734,-22.135000228881836 -21.885000228881836,-95.79100036621094 -21.885000228881836,-95.79100036621094 C10.616999626159668,-128.29200744628906 63.5,-128.29200744628906 96.00199890136719,-95.79100036621094 C109.29499816894531,-82.49800109863281 117.52400207519531,-65.62799835205078 119.79900360107422,-47.00400161743164 C120.8479995727539,-38.42499923706055 114.74199676513672,-30.618999481201172 106.16300201416016,-29.570999145507812 C97.58000183105469,-28.520999908447266 89.77899932861328,-34.62799835205078 88.7300033569336,-43.20800018310547 C87.30999755859375,-54.82600021362305 82.1719970703125,-65.3550033569336 73.86900329589844,-73.65799713134766 C53.571998596191406,-93.95500183105469 20.545000076293945,-93.95700073242188 0.24799999594688416,-73.65799713134766 C0.24799999594688416,-73.65799713134766 -73.40699768066406,-0.003000000026077032 -73.40699768066406,-0.003000000026077032 C-93.70500183105469,20.29400062561035 -93.70500183105469,53.32099914550781 -73.40699768066406,73.61900329589844 C-63.57500076293945,83.4520034790039 -50.50199890136719,88.86699676513672 -36.59700012207031,88.86699676513672 C-22.691999435424805,88.86699676513672 -9.618000030517578,83.4520034790039 0.21400000154972076,73.61900329589844 C0.21400000154972076,73.61900329589844 19.548999786376953,54.284000396728516 19.548999786376953,54.284000396728516 C25.65999984741211,48.17300033569336 35.57099914550781,48.17300033569336 41.68199920654297,54.284000396728516 C47.792999267578125,60.395999908447266 47.792999267578125,70.30400085449219 41.68199920654297,76.41600036621094 C41.68199920654297,76.41600036621094 22.347000122070312,95.7509994506836 22.347000122070312,95.7509994506836 C6.603000164031982,111.49500274658203 -14.331000328063965,120.16600036621094 -36.59700012207031,120.16600036621094z"/></g></g><g class="primary design" transform="matrix(1,0,0,1,317.0050048828125,213.34500122070312)" opacity="1" style="display: block;"><g opacity="1" transform="matrix(1,0,0,1,0,0)"><path class="primary" fill="rgb(18,19,49)" fill-opacity="1" d=" M-37.07899856567383,120.16600036621094 C-58.42499923706055,120.16600036621094 -79.77100372314453,112.04100036621094 -96.02200317382812,95.79100036621094 C-109.31400299072266,82.49800109863281 -117.54299926757812,65.62799835205078 -119.81800079345703,47.00400161743164 C-120.86699676513672,38.42499923706055 -114.76100158691406,30.618999481201172 -106.18199920654297,29.570999145507812 C-97.5999984741211,28.520000457763672 -89.7979965209961,34.62799835205078 -88.7490005493164,43.20800018310547 C-87.3290023803711,54.82699966430664 -82.19100189208984,65.35600280761719 -73.88899993896484,73.65799713134766 C-53.590999603271484,93.95500183105469 -20.56399917602539,93.95500183105469 -0.2680000066757202,73.65799713134766 C-0.2680000066757202,73.65799713134766 73.38700103759766,0.003000000026077032 73.38700103759766,0.003000000026077032 C83.22000122070312,-9.829999923706055 88.63500213623047,-22.902999877929688 88.63500213623047,-36.80799865722656 C88.63500213623047,-50.7130012512207 83.22000122070312,-63.78499984741211 73.38700103759766,-73.61799621582031 C63.55500030517578,-83.45099639892578 50.481998443603516,-88.86599731445312 36.57699966430664,-88.86599731445312 C22.672000885009766,-88.86599731445312 9.597999572753906,-83.4520034790039 -0.23399999737739563,-73.61900329589844 C-0.23399999737739563,-73.61900329589844 -19.569000244140625,-54.28300094604492 -19.569000244140625,-54.28300094604492 C-25.68000030517578,-48.172000885009766 -35.590999603271484,-48.172000885009766 -41.70199966430664,-54.28300094604492 C-47.8129997253418,-60.39500045776367 -47.8129997253418,-70.30400085449219 -41.70199966430664,-76.41600036621094 C-41.70199966430664,-76.41600036621094 -22.367000579833984,-95.7509994506836 -22.367000579833984,-95.7509994506836 C-6.623000144958496,-111.49500274658203 14.310999870300293,-120.16600036621094 36.57699966430664,-120.16600036621094 C58.84299850463867,-120.16600036621094 79.7760009765625,-111.49600219726562 95.5199966430664,-95.7509994506836 C111.26399993896484,-80.00700378417969 119.93499755859375,-59.07400131225586 119.93499755859375,-36.80799865722656 C119.93499755859375,-14.541999816894531 111.26399993896484,6.390999794006348 95.5199966430664,22.135000228881836 C95.5199966430664,22.135000228881836 21.864999771118164,95.79100036621094 21.864999771118164,95.79100036621094 C5.613999843597412,112.04100036621094 -15.732000350952148,120.16600036621094 -37.07899856567383,120.16600036621094z"/></g></g></g></g></svg>