<svg xmlns="http://www.w3.org/2000/svg" xmlns:xlink="http://www.w3.org/1999/xlink" viewBox="0 0 500 500" width="500" height="500" preserveAspectRatio="xMidYMid meet" style="width: 100%; height: 100%; transform: translate3d(0px, 0px, 0px); content-visibility: visible;"><defs><clipPath id="__lottie_element_2"><rect width="500" height="500" x="0" y="0"/></clipPath><clipPath id="__lottie_element_4"><path d="M0,0 L500,0 L500,500 L0,500z"/></clipPath></defs><g clip-path="url(#__lottie_element_2)"><g clip-path="url(#__lottie_element_4)" transform="matrix(1,0,0,1,0,0)" opacity="1" style="display: block;"><g class="primary design" transform="matrix(20.829999923706055,0,0,20.829999923706055,-4957.498046875,-4957.498046875)" opacity="1" style="display: block;"><g opacity="1" transform="matrix(1,0,0,1,0,0)"><g opacity="1" transform="matrix(1,0,0,1,250.3070068359375,246.02499389648438)"><path class="primary" fill="rgb(18,19,49)" fill-opacity="1" d=" M-0.3070000112056732,-4.025000095367432 C-2.546999931335449,-4.025000095367432 -4.666999816894531,-3.065000057220459 -6.177000045776367,-1.475000023841858 C-6.177000045776367,-1.475000023841858 -6.177000045776367,-3.234999895095825 -6.177000045776367,-3.234999895095825 C-6.177000045776367,-3.6449999809265137 -6.517000198364258,-3.984999895095825 -6.936999797821045,-3.984999895095825 C-7.35699987411499,-3.984999895095825 -7.686999797821045,-3.6449999809265137 -7.686999797821045,-3.234999895095825 C-7.686999797821045,-3.234999895095825 -7.686999797821045,0.24500000476837158 -7.686999797821045,0.24500000476837158 C-7.686999797821045,0.6549999713897705 -7.3470001220703125,0.9950000047683716 -6.927000045776367,0.9950000047683716 C-6.927000045776367,0.9950000047683716 -3.427000045776367,0.9950000047683716 -3.427000045776367,0.9950000047683716 C-3.006999969482422,0.9950000047683716 -2.6670000553131104,0.6549999713897705 -2.6670000553131104,0.24500000476837158 C-2.6670000553131104,-0.16500000655651093 -3.006999969482422,-0.5049999952316284 -3.427000045776367,-0.5049999952316284 C-3.427000045776367,-0.5049999952316284 -5.0269999504089355,-0.5049999952316284 -5.0269999504089355,-0.5049999952316284 C-3.816999912261963,-1.784999966621399 -2.13700008392334,-2.5250000953674316 -0.3070000112056732,-2.5250000953674316 C3.0829999446868896,-2.5250000953674316 5.873000144958496,-0.004999999888241291 6.183000087738037,3.3450000286102295 C6.2230000495910645,3.734999895095825 6.552999973297119,4.025000095367432 6.933000087738037,4.025000095367432 C6.953000068664551,4.025000095367432 6.982999801635742,4.025000095367432 7.002999782562256,4.025000095367432 C7.422999858856201,3.984999895095825 7.7230000495910645,3.625 7.683000087738037,3.2049999237060547 C7.302999973297119,-0.9150000214576721 3.86299991607666,-4.025000095367432 -0.3070000112056732,-4.025000095367432z"/></g><g opacity="1" transform="matrix(1,0,0,1,249.68299865722656,253.9720001220703)"><path class="primary" fill="rgb(18,19,49)" fill-opacity="1" d=" M6.916999816894531,-0.9919999837875366 C6.916999816894531,-0.9919999837875366 3.4170000553131104,-0.9919999837875366 3.4170000553131104,-0.9919999837875366 C2.996999979019165,-0.9919999837875366 2.6570000648498535,-0.6520000100135803 2.6570000648498535,-0.24199999868869781 C2.6570000648498535,0.1679999977350235 2.996999979019165,0.5080000162124634 3.4170000553131104,0.5080000162124634 C3.4170000553131104,0.5080000162124634 5.046999931335449,0.5080000162124634 5.046999931335449,0.5080000162124634 C3.8269999027252197,1.7879999876022339 2.1470000743865967,2.5280001163482666 0.31700000166893005,2.5280001163482666 C-3.072999954223633,2.5280001163482666 -5.86299991607666,0.00800000037997961 -6.172999858856201,-3.3420000076293945 C-6.2129998207092285,-3.752000093460083 -6.583000183105469,-4.072000026702881 -6.993000030517578,-4.021999835968018 C-7.413000106811523,-3.9820001125335693 -7.7129998207092285,-3.621999979019165 -7.672999858856201,-3.2019999027252197 C-7.293000221252441,0.9179999828338623 -3.8529999256134033,4.0279998779296875 0.31700000166893005,4.0279998779296875 C2.5369999408721924,4.0279998779296875 4.6570000648498535,3.0880000591278076 6.1570000648498535,1.5080000162124634 C6.1570000648498535,1.5080000162124634 6.1570000648498535,3.23799991607666 6.1570000648498535,3.23799991607666 C6.1570000648498535,3.6480000019073486 6.497000217437744,3.98799991607666 6.916999816894531,3.98799991607666 C7.336999893188477,3.98799991607666 7.677000045776367,3.6480000019073486 7.677000045776367,3.23799991607666 C7.677000045776367,3.23799991607666 7.677000045776367,-0.24199999868869781 7.677000045776367,-0.24199999868869781 C7.666999816894531,-0.6620000004768372 7.327000141143799,-0.9919999837875366 6.916999816894531,-0.9919999837875366z"/></g></g></g></g></g></svg>