<svg xmlns="http://www.w3.org/2000/svg" xmlns:xlink="http://www.w3.org/1999/xlink" viewBox="0 0 500 500" width="500" height="500" preserveAspectRatio="xMidYMid meet" style="width: 100%; height: 100%; transform: translate3d(0px, 0px, 0px); content-visibility: visible;"><defs><clipPath id="__lottie_element_2"><rect width="500" height="500" x="0" y="0"/></clipPath><clipPath id="__lottie_element_4"><path d="M0,0 L500,0 L500,500 L0,500z"/></clipPath></defs><g clip-path="url(#__lottie_element_2)"><g clip-path="url(#__lottie_element_4)" transform="matrix(1,0,0,1,0,0)" opacity="1" style="display: block;"><g class="primary design" transform="matrix(-0.9999638199806213,0.008508268743753433,-0.008508268743753433,-0.9999638199806213,250,250)" opacity="1" style="display: block;"><g opacity="1" transform="matrix(1,0,0,1,0,0)"><path class="primary" fill="rgb(18,19,49)" fill-opacity="1" d=" M36.457000732421875,208.1280059814453 C36.457000732421875,208.1280059814453 -36.45899963378906,208.1280059814453 -36.45899963378906,208.1280059814453 C-50.832000732421875,208.1280059814453 -62.5260009765625,196.43499755859375 -62.5260009765625,182.06199645996094 C-62.5260009765625,182.06199645996094 -62.5260009765625,154.1739959716797 -62.5260009765625,154.1739959716797 C-76.74700164794922,148.54400634765625 -90.08399963378906,140.7740020751953 -102.37100219726562,130.9600067138672 C-102.37100219726562,130.9600067138672 -126.52100372314453,144.97300720214844 -126.52100372314453,144.97300720214844 C-138.95899963378906,152.2259979248047 -155.00900268554688,148.01699829101562 -162.2689971923828,135.572998046875 C-162.2689971923828,135.572998046875 -198.76100158691406,72.38899993896484 -198.76100158691406,72.38899993896484 C-198.83200073242188,72.26499938964844 -198.9029998779297,72.13999938964844 -198.97000122070312,72.01499938964844 C-205.81399536132812,59.38100051879883 -201.3070068359375,43.625 -188.93499755859375,36.7599983215332 C-188.93499755859375,36.7599983215332 -165.093994140625,22.98900032043457 -165.093994140625,22.98900032043457 C-166.156005859375,15.553000450134277 -166.69200134277344,7.784999847412109 -166.69200134277344,-0.2290000021457672 C-166.69200134277344,-8.243000030517578 -166.156005859375,-16.01300048828125 -165.093994140625,-23.447999954223633 C-165.093994140625,-23.447999954223633 -188.93600463867188,-37.21900177001953 -188.93600463867188,-37.21900177001953 C-201.3070068359375,-44.08399963378906 -205.81399536132812,-59.8390007019043 -198.9709930419922,-72.4729995727539 C-198.9029998779297,-72.5979995727539 -198.83299255371094,-72.7239990234375 -198.76100158691406,-72.8479995727539 C-198.76100158691406,-72.8479995727539 -162.30299377441406,-135.97300720214844 -162.30299377441406,-135.97300720214844 C-158.74400329589844,-142.07400512695312 -153.06700134277344,-146.3719940185547 -146.2830047607422,-148.13600158691406 C-139.53799438476562,-149.89199829101562 -132.50799560546875,-148.9239959716797 -126.48899841308594,-145.41299438476562 C-126.48899841308594,-145.41299438476562 -102.37100219726562,-131.41799926757812 -102.37100219726562,-131.41799926757812 C-90.08399963378906,-141.23199462890625 -76.74500274658203,-149.00399780273438 -62.5260009765625,-154.63299560546875 C-62.5260009765625,-154.63299560546875 -62.5260009765625,-182.52000427246094 -62.5260009765625,-182.52000427246094 C-62.5260009765625,-196.89300537109375 -50.832000732421875,-208.58599853515625 -36.45899963378906,-208.58599853515625 C-36.45899963378906,-208.58599853515625 36.457000732421875,-208.58599853515625 36.457000732421875,-208.58599853515625 C50.83000183105469,-208.58599853515625 62.52399826049805,-196.89300537109375 62.52399826049805,-182.52000427246094 C62.52399826049805,-182.52000427246094 62.52399826049805,-154.63299560546875 62.52399826049805,-154.63299560546875 C76.74199676513672,-149.00399780273438 90.08100128173828,-141.23199462890625 102.36900329589844,-131.41799926757812 C102.36900329589844,-131.41799926757812 126.51899719238281,-145.4320068359375 126.51899719238281,-145.4320068359375 C138.9550018310547,-152.68800354003906 155.0050048828125,-148.47999572753906 162.26600646972656,-136.03199768066406 C162.26600646972656,-136.03199768066406 198.75900268554688,-72.8479995727539 198.75900268554688,-72.8479995727539 C198.8300018310547,-72.7239990234375 198.9010009765625,-72.5979995727539 198.968994140625,-72.4729995727539 C205.81100463867188,-59.84000015258789 201.3040008544922,-44.08700180053711 188.93499755859375,-37.22100067138672 C188.93499755859375,-37.22100067138672 165.0919952392578,-23.447999954223633 165.0919952392578,-23.447999954223633 C166.1540069580078,-16.01099967956543 166.69000244140625,-8.241000175476074 166.69000244140625,-0.2290000021457672 C166.69000244140625,7.7820000648498535 166.1540069580078,15.552000045776367 165.0919952392578,22.98900032043457 C165.0919952392578,22.98900032043457 188.9340057373047,36.76100158691406 188.9340057373047,36.76100158691406 C201.30599975585938,43.625999450683594 205.81199645996094,59.38100051879883 198.96800231933594,72.01499938964844 C198.9010009765625,72.13999938964844 198.8300018310547,72.26499938964844 198.75900268554688,72.38899993896484 C198.75900268554688,72.38899993896484 162.3000030517578,135.51400756835938 162.3000030517578,135.51400756835938 C155.0070037841797,148.01600646972656 138.95799255371094,152.2259979248047 126.48999786376953,144.95700073242188 C126.48999786376953,144.95700073242188 102.36900329589844,130.9600067138672 102.36900329589844,130.9600067138672 C90.08100128173828,140.7740020751953 76.74500274658203,148.54400634765625 62.52399826049805,154.1739959716797 C62.52399826049805,154.1739959716797 62.52399826049805,182.06199645996094 62.52399826049805,182.06199645996094 C62.52399826049805,196.43499755859375 50.83000183105469,208.1280059814453 36.457000732421875,208.1280059814453z M-31.22599983215332,176.8280029296875 C-31.22599983215332,176.8280029296875 31.224000930786133,176.8280029296875 31.224000930786133,176.8280029296875 C31.224000930786133,176.8280029296875 31.224000930786133,143.10400390625 31.224000930786133,143.10400390625 C31.224000930786133,136.24200439453125 35.69300079345703,130.17999267578125 42.249000549316406,128.15199279785156 C59.762001037597656,122.73500061035156 75.83899688720703,113.3740005493164 90.03500366210938,100.33000183105469 C95.08000183105469,95.69499969482422 102.55400085449219,94.87999725341797 108.47899627685547,98.31800079345703 C108.47899627685547,98.31800079345703 137.8090057373047,115.33699798583984 137.8090057373047,115.33699798583984 C137.8090057373047,115.33699798583984 168.97300720214844,61.37799835205078 168.97300720214844,61.37799835205078 C168.97300720214844,61.37799835205078 139.87899780273438,44.571998596191406 139.87899780273438,44.571998596191406 C133.93099975585938,41.1349983215332 130.91799926757812,34.22200012207031 132.45199584960938,27.525999069213867 C134.4010009765625,19.016000747680664 135.38999938964844,9.678000450134277 135.38999938964844,-0.2290000021457672 C135.38999938964844,-10.13700008392334 134.4010009765625,-19.47599983215332 132.45199584960938,-27.983999252319336 C130.91799926757812,-34.68000030517578 133.93099975585938,-41.59400177001953 139.87899780273438,-45.029998779296875 C139.87899780273438,-45.029998779296875 168.97300720214844,-61.83700180053711 168.97300720214844,-61.83700180053711 C168.97300720214844,-61.83700180053711 137.8090057373047,-115.79499816894531 137.8090057373047,-115.79499816894531 C137.8090057373047,-115.79499816894531 108.47899627685547,-98.7760009765625 108.47899627685547,-98.7760009765625 C102.552001953125,-95.33799743652344 95.0790023803711,-96.15299987792969 90.03500366210938,-100.78800201416016 C75.83699798583984,-113.83399963378906 59.7599983215332,-123.19499969482422 42.25,-128.61099243164062 C35.694000244140625,-130.63800048828125 31.224000930786133,-136.6999969482422 31.224000930786133,-143.56199645996094 C31.224000930786133,-143.56199645996094 31.224000930786133,-177.28599548339844 31.224000930786133,-177.28599548339844 C31.224000930786133,-177.28599548339844 -31.22599983215332,-177.28599548339844 -31.22599983215332,-177.28599548339844 C-31.22599983215332,-177.28599548339844 -31.22599983215332,-143.56199645996094 -31.22599983215332,-143.56199645996094 C-31.22599983215332,-136.6999969482422 -35.69599914550781,-130.63800048828125 -42.25199890136719,-128.61099243164062 C-59.76300048828125,-123.19499969482422 -75.83999633789062,-113.83399963378906 -90.03600311279297,-100.78800201416016 C-95.08200073242188,-96.1520004272461 -102.55400085449219,-95.33799743652344 -108.4800033569336,-98.7760009765625 C-108.4800033569336,-98.7760009765625 -137.81199645996094,-115.79499816894531 -137.81199645996094,-115.79499816894531 C-137.81199645996094,-115.79499816894531 -168.9759979248047,-61.83599853515625 -168.9759979248047,-61.83599853515625 C-168.9759979248047,-61.83599853515625 -139.88099670410156,-45.03099822998047 -139.88099670410156,-45.03099822998047 C-133.9320068359375,-41.59400177001953 -130.9199981689453,-34.67900085449219 -132.4550018310547,-27.98200035095215 C-134.4029998779297,-19.479000091552734 -135.39199829101562,-10.140999794006348 -135.39199829101562,-0.2290000021457672 C-135.39199829101562,9.682000160217285 -134.4029998779297,19.020000457763672 -132.45399475097656,27.524999618530273 C-130.9199981689453,34.22200012207031 -133.9320068359375,41.1349983215332 -139.88099670410156,44.571998596191406 C-139.88099670410156,44.571998596191406 -168.9759979248047,61.37799835205078 -168.9759979248047,61.37799835205078 C-168.9759979248047,61.37799835205078 -137.81199645996094,115.33699798583984 -137.81199645996094,115.33699798583984 C-137.81199645996094,115.33699798583984 -108.4800033569336,98.31800079345703 -108.4800033569336,98.31800079345703 C-102.5530014038086,94.87899780273438 -95.08200073242188,95.69400024414062 -90.03600311279297,100.33000183105469 C-75.84200286865234,113.3740005493164 -59.76499938964844,122.73500061035156 -42.250999450683594,128.15199279785156 C-35.69499969482422,130.17999267578125 -31.22599983215332,136.24200439453125 -31.22599983215332,143.10400390625 C-31.22599983215332,143.10400390625 -31.22599983215332,176.8280029296875 -31.22599983215332,176.8280029296875z M-142.24000549316406,117.90699768066406 C-142.2469940185547,117.91000366210938 -142.2530059814453,117.91500091552734 -142.25900268554688,117.91799926757812 C-142.25900268554688,117.91799926757812 -142.24000549316406,117.90699768066406 -142.24000549316406,117.90699768066406z M142.20899963378906,117.88999938964844 C142.20899963378906,117.88999938964844 142.22799682617188,117.9010009765625 142.22799682617188,117.9010009765625 C142.2220001220703,117.89800262451172 142.21600341796875,117.89299774169922 142.20899963378906,117.88999938964844z M173.79400634765625,64.15599822998047 C173.79400634765625,64.15599822998047 173.8040008544922,64.15599822998047 173.8040008544922,64.15599822998047 C173.8040008544922,64.15599822998047 173.79400634765625,64.15599822998047 173.79400634765625,64.15599822998047z M-142.22999572753906,-118.35900115966797 C-142.22300720214844,-118.3550033569336 -142.21800231933594,-118.35199737548828 -142.21099853515625,-118.3479995727539 C-142.21099853515625,-118.3479995727539 -142.22999572753906,-118.35900115966797 -142.22999572753906,-118.35900115966797z M142.25999450683594,-118.37799835205078 C142.25999450683594,-118.37799835205078 142.24000549316406,-118.36699676513672 142.24000549316406,-118.36699676513672 C142.24600219726562,-118.37000274658203 142.2530059814453,-118.3740005493164 142.25999450683594,-118.37799835205078z M-0.0010000000474974513,83.12899780273438 C-7.065999984741211,83.12899780273438 -14.276000022888184,82.19000244140625 -21.426000595092773,80.33799743652344 C-21.60099983215332,80.29199981689453 -21.774999618530273,80.24400329589844 -21.948999404907227,80.19300079345703 C-27.0310001373291,78.68699645996094 -34.57400131225586,76.18399810791016 -41.715999603271484,71.78800201416016 C-54.382999420166016,64.61799621582031 -64.8489990234375,54.15299987792969 -72.01799774169922,41.487998962402344 C-76.41300201416016,34.3489990234375 -78.91600036621094,26.802000045776367 -80.4229965209961,21.716999053955078 C-80.4739990234375,21.545000076293945 -80.52200317382812,21.371000289916992 -80.56700134277344,21.19700050354004 C-82.41999816894531,14.050999641418457 -83.35900115966797,6.8420000076293945 -83.35900115966797,-0.2290000021457672 C-83.35900115966797,-7.300000190734863 -82.41999816894531,-14.508999824523926 -80.56700134277344,-21.6560001373291 C-80.52200317382812,-21.83099937438965 -80.4739990234375,-22.0049991607666 -80.4229965209961,-22.17799949645996 C-78.91500091552734,-27.26300048828125 -76.41300201416016,-34.80799865722656 -72.01799774169922,-41.94599914550781 C-64.8479995727539,-54.61199951171875 -54.38399887084961,-65.0770034790039 -41.71900177001953,-72.24400329589844 C-34.58100128173828,-76.63999938964844 -27.034000396728516,-79.14399719238281 -21.948999404907227,-80.6510009765625 C-21.777000427246094,-80.7020034790039 -21.604000091552734,-80.75 -21.43000030517578,-80.79499816894531 C-14.282999992370605,-82.64800262451172 -7.072000026702881,-83.58699798583984 -0.0010000000474974513,-83.58699798583984 C7.071000099182129,-83.58699798583984 14.281000137329102,-82.64800262451172 21.427000045776367,-80.79499816894531 C21.60099983215332,-80.75 21.77400016784668,-80.7020034790039 21.945999145507812,-80.6510009765625 C27.031999588012695,-79.14299774169922 34.57899856567383,-76.63899993896484 41.71699905395508,-72.24400329589844 C54.38100051879883,-65.07599639892578 64.84600067138672,-54.611000061035156 72.01499938964844,-41.94499969482422 C76.40899658203125,-34.81100082397461 78.91200256347656,-27.263999938964844 80.41999816894531,-22.17799949645996 C80.47100067138672,-22.006000518798828 80.51799774169922,-21.83300018310547 80.56300354003906,-21.659000396728516 C82.41699981689453,-14.512999534606934 83.35700225830078,-7.302000045776367 83.35700225830078,-0.2290000021457672 C83.35700225830078,6.84499979019165 82.41699981689453,14.055000305175781 80.56300354003906,21.200000762939453 C80.51799774169922,21.37299919128418 80.47100067138672,21.54599952697754 80.41999816894531,21.716999053955078 C78.91200256347656,26.80299949645996 76.41000366210938,34.35100173950195 72.01499938964844,41.48699951171875 C64.84700012207031,54.1510009765625 54.38199996948242,64.61699676513672 41.715999603271484,71.78700256347656 C34.57400131225586,76.18299865722656 27.02899932861328,78.68599700927734 21.945999145507812,80.19300079345703 C21.77199935913086,80.24400329589844 21.599000930786133,80.29299926757812 21.42300033569336,80.33799743652344 C14.27400016784668,82.19000244140625 7.065000057220459,83.12899780273438 -0.0010000000474974513,83.12899780273438z M-13.321000099182129,50.10300064086914 C-8.819000244140625,51.24800109863281 -4.339000225067139,51.82899856567383 -0.0010000000474974513,51.82899856567383 C4.336999893188477,51.82899856567383 8.815999984741211,51.249000549316406 13.317999839782715,50.104000091552734 C18.597999572753906,48.52299880981445 22.461000442504883,46.9119987487793 25.45599937438965,45.040000915527344 C25.667999267578125,44.90800094604492 25.884000778198242,44.779998779296875 26.101999282836914,44.65800094604492 C33.97999954223633,40.244998931884766 40.474998474121094,33.75 44.8849983215332,25.874000549316406 C45.007999420166016,25.65399932861328 45.137001037597656,25.437000274658203 45.270999908447266,25.224000930786133 C47.138999938964844,22.233999252319336 48.75,18.37299919128418 50.33100128173828,13.088000297546387 C51.47700119018555,8.593000411987305 52.05699920654297,4.11299991607666 52.05699920654297,-0.2290000021457672 C52.05699920654297,-4.571000099182129 51.47700119018555,-9.050000190734863 50.33100128173828,-13.54699993133545 C48.75,-18.832000732421875 47.138999938964844,-22.69300079345703 45.270999908447266,-25.68199920654297 C45.137001037597656,-25.895999908447266 45.007999420166016,-26.11199951171875 44.8849983215332,-26.332000732421875 C40.4739990234375,-34.20899963378906 33.97999954223633,-40.70500183105469 26.10300064086914,-45.11600112915039 C25.884000778198242,-45.23899841308594 25.66699981689453,-45.367000579833984 25.452999114990234,-45.5 C22.461999893188477,-47.369998931884766 18.599000930786133,-48.98099899291992 13.315999984741211,-50.5620002746582 C8.819000244140625,-51.707000732421875 4.341000080108643,-52.2869987487793 -0.0010000000474974513,-52.2869987487793 C-4.3420000076293945,-52.2869987487793 -8.821000099182129,-51.707000732421875 -13.319000244140625,-50.5620002746582 C-18.60099983215332,-48.98099899291992 -22.46299934387207,-47.37099838256836 -25.454999923706055,-45.5 C-25.66900062561035,-45.367000579833984 -25.885000228881836,-45.237998962402344 -26.104999542236328,-45.1150016784668 C-33.98099899291992,-40.70500183105469 -40.47700119018555,-34.209999084472656 -44.88800048828125,-26.332000732421875 C-45.01100158691406,-26.113000869750977 -45.13800048828125,-25.89699935913086 -45.27199935913086,-25.68400001525879 C-47.141998291015625,-22.691999435424805 -48.75299835205078,-18.83099937438965 -50.33399963378906,-13.54800033569336 C-51.479000091552734,-9.050000190734863 -52.058998107910156,-4.570000171661377 -52.058998107910156,-0.2290000021457672 C-52.058998107910156,4.111999988555908 -51.479000091552734,8.59000015258789 -50.334999084472656,13.086999893188477 C-48.75400161743164,18.371000289916992 -47.141998291015625,22.232999801635742 -45.270999908447266,25.22599983215332 C-45.13800048828125,25.43899917602539 -45.01100158691406,25.655000686645508 -44.88800048828125,25.874000549316406 C-40.47800064086914,33.75 -33.983001708984375,40.244998931884766 -26.104000091552734,44.65800094604492 C-25.88599967956543,44.779998779296875 -25.67099952697754,44.90800094604492 -25.45800018310547,45.040000915527344 C-22.461999893188477,46.9119987487793 -18.600000381469727,48.52299880981445 -13.321000099182129,50.10300064086914z M65.41500091552734,17.270000457763672 C65.41500091552734,17.270000457763672 65.42500305175781,17.270000457763672 65.42500305175781,17.270000457763672 C65.42500305175781,17.270000457763672 65.41500091552734,17.270000457763672 65.41500091552734,17.270000457763672z"/></g></g></g></g></svg>