<svg xmlns="http://www.w3.org/2000/svg" xmlns:xlink="http://www.w3.org/1999/xlink" viewBox="0 0 500 500" width="500" height="500" preserveAspectRatio="xMidYMid meet" style="width: 100%; height: 100%; transform: translate3d(0px, 0px, 0px); content-visibility: visible;"><defs><clipPath id="__lottie_element_2"><rect width="500" height="500" x="0" y="0"/></clipPath><clipPath id="__lottie_element_4"><path d="M0,0 L500,0 L500,500 L0,500z"/></clipPath></defs><g clip-path="url(#__lottie_element_2)"><g clip-path="url(#__lottie_element_4)" transform="matrix(1,0,0,1,0,0)" opacity="1" style="display: block;"><g class="primary design" transform="matrix(1,0,0,1,0,0)" opacity="1" style="display: block;"><g opacity="1" transform="matrix(1,0,0,1,250.04600524902344,386.2019958496094)"><g opacity="1" transform="matrix(1,0,0,1,0,0)"><path class="primary" fill="rgb(18,19,49)" fill-opacity="1" d=" M0,31.354000091552734 C-4.166999816894531,31.354000091552734 -8.333000183105469,30.520999908447266 -12.083000183105469,29.062999725341797 C-15.833000183105469,27.395999908447266 -19.375,25.104000091552734 -22.08300018310547,21.979000091552734 C-25,19.270999908447266 -27.29199981689453,15.729000091552734 -28.75,11.979000091552734 C-30.41699981689453,8.229000091552734 -31.25,4.270999908447266 -31.25,0.10400000214576721 C-31.25,-1.9789999723434448 -31.041000366210938,-3.8550000190734863 -30.83300018310547,-5.938000202178955 C-30.416000366210938,-8.020999908447266 -29.79199981689453,-9.895999908447266 -28.75,-11.979000091552734 C-27.91699981689453,-13.645999908447266 -27.083999633789062,-15.729999542236328 -26.04199981689453,-17.187999725341797 C-24.79199981689453,-18.854999542236328 -23.541000366210938,-20.729000091552734 -22.08300018310547,-21.979000091552734 C-20.83300018310547,-23.437000274658203 -19.16699981689453,-24.687999725341797 -17.29199981689453,-25.937999725341797 C-15.833999633789062,-26.979999542236328 -13.75,-28.020999908447266 -12.083000183105469,-28.645999908447266 C-10,-29.687999725341797 -8.125,-30.104000091552734 -6.041999816894531,-30.729000091552734 C-2.0840001106262207,-31.562000274658203 1.875,-31.562000274658203 6.041999816894531,-30.729000091552734 C8.125,-30.312000274658203 10,-29.687999725341797 12.083000183105469,-28.645999908447266 C13.75,-27.812999725341797 15.833999633789062,-26.979999542236328 17.29199981689453,-25.937999725341797 C18.958999633789062,-24.687999725341797 20.83300018310547,-23.437000274658203 22.08300018310547,-21.979000091552734 C28.125,-16.145999908447266 31.25,-8.229000091552734 31.25,-0.10400000214576721 C31.25,4.063000202178955 30.41699981689453,8.229000091552734 28.75,11.770999908447266 C27.29199981689453,15.520999908447266 25,19.062999725341797 22.08300018310547,21.770999908447266 C19.375,24.687999725341797 15.833000183105469,26.979000091552734 12.083000183105469,28.854000091552734 C8.333000183105469,30.520999908447266 4.166999816894531,31.354000091552734 0,31.354000091552734z"/></g></g><g opacity="1" transform="matrix(1,0,0,1,250.14999389648438,221.43099975585938)"><path class="primary" fill="rgb(18,19,49)" fill-opacity="1" d=" M124.89600372314453,43.986000061035156 C120.10399627685547,43.986000061035156 115.31199645996094,42.319000244140625 111.35399627685547,38.986000061035156 C95.72899627685547,25.444000244140625 77.81199645996094,15.027999877929688 57.8120002746582,7.5279998779296875 C21.145000457763672,-6.013999938964844 -21.145999908447266,-6.013999938964844 -57.8129997253418,7.5279998779296875 C-77.81300354003906,14.819999694824219 -95.72899627685547,25.444000244140625 -111.35399627685547,38.986000061035156 C-120.10399627685547,46.486000061035156 -133.22900390625,45.65299987792969 -140.72900390625,36.90299987792969 C-148.22900390625,28.152999877929688 -147.39599609375,15.027999877929688 -138.64599609375,7.5279998779296875 C-119.27100372314453,-9.347000122070312 -96.9800033569336,-22.472999572753906 -72.18800354003906,-31.430999755859375 C-26.145999908447266,-48.305999755859375 26.145999908447266,-48.305999755859375 72.18800354003906,-31.430999755859375 C96.9800033569336,-22.263999938964844 119.27100372314453,-9.138999938964844 138.64599609375,7.5279998779296875 C147.39599609375,15.027999877929688 148.22900390625,28.152999877929688 140.72900390625,36.90299987792969 C136.56199645996094,41.486000061035156 130.72900390625,43.986000061035156 124.89600372314453,43.986000061035156z"/></g><g opacity="1" transform="matrix(1,0,0,1,249.83799743652344,133.0469970703125)"><path class="primary" fill="rgb(18,19,49)" fill-opacity="1" d=" M-187.29200744628906,54.452999114990234 C-193.125,54.452999114990234 -199.16600036621094,51.952999114990234 -203.33299255371094,46.952999114990234 C-210.83299255371094,38.202999114990234 -209.58299255371094,25.077999114990234 -200.83299255371094,17.577999114990234 C-181.25,1.1200000047683716 -159.16700744628906,-13.04699993133545 -135.625,-24.297000885009766 C-53.125,-64.50499725341797 52.91600036621094,-64.50499725341797 135.83299255371094,-24.297000885009766 C159.375,-13.255000114440918 181.25,0.9120000004768372 200.83299255371094,17.3700008392334 C209.58299255371094,24.8700008392334 210.83299255371094,37.994998931884766 203.33299255371094,46.744998931884766 C196.04100036621094,55.494998931884766 182.70799255371094,56.744998931884766 173.95799255371094,49.244998931884766 C157.08299255371094,35.077999114990234 138.125,22.785999298095703 117.70800018310547,13.20300006866455 C45.625,-21.797000885009766 -46.04100036621094,-21.797000885009766 -117.70800018310547,13.20300006866455 C-138.125,23.202999114990234 -157.08299255371094,35.2859992980957 -173.95799255371094,49.6609992980957 C-177.70799255371094,52.7859992980957 -182.5,54.452999114990234 -187.29200744628906,54.452999114990234z"/></g><g opacity="1" transform="matrix(1,0,0,1,249.94200134277344,300.56500244140625)"><path class="primary" fill="rgb(18,19,49)" fill-opacity="1" d=" M-62.395999908447266,32.768001556396484 C-68.22899627685547,32.768001556396484 -73.85399627685547,30.47599983215332 -78.02100372314453,25.89299964904785 C-85.72899627685547,17.35099983215332 -84.89600372314453,4.22599983215332 -76.35399627685547,-3.4820001125335693 C-55.104000091552734,-22.440000534057617 -27.812999725341797,-32.856998443603516 0.10400000214576721,-32.856998443603516 C28.020999908447266,-32.856998443603516 55.104000091552734,-22.440000534057617 76.35399627685547,-3.4820001125335693 C84.89600372314453,4.22599983215332 85.72899627685547,17.35099983215332 78.02100372314453,25.89299964904785 C70.31300354003906,34.435001373291016 57.1879997253418,35.268001556396484 48.645999908447266,27.559999465942383 C20.729000091552734,2.7679998874664307 -20.937999725341797,2.7679998874664307 -48.645999908447266,27.559999465942383 C-52.604000091552734,31.101999282836914 -57.395999908447266,32.768001556396484 -62.395999908447266,32.768001556396484z"/></g></g></g></g></svg>